<?xml version="1.0" encoding="utf-8"?>
<!-- Generator: Adobe Illustrator 22.0.1, SVG Export Plug-In . SVG Version: 6.00 Build 0)  -->
<svg version="1.1" id="Layer_1" xmlns="http://www.w3.org/2000/svg" xmlns:xlink="http://www.w3.org/1999/xlink" x="0px" y="0px"
	 viewBox="0 0 289 288" style="enable-background:new 0 0 289 288;" xml:space="preserve">
<g>
	<path d="M192.1,65c-0.2,0.1-0.4,0.1-0.8,0.2c0.1-0.5,0.1-0.9,0.2-1.3c0.9-3.6,1.8-7.3,2.6-10.9c0.3-1.2,0-1.6-1.2-1.4
		c-1.7,0.2-3.5,0.4-5,1c-4.6,1.9-9.2,4-13.8,5.9c-1.6,0.7-3.1,1.6-5.1,1.2c-7.3-1.6-14.8-2.6-22.3-1.9c-6,0.5-11.9,1.4-17.8,2.1
		c-3.7,0.4-7-0.3-9.2-3.7c-0.4-0.7-1-1.3-1.5-1.9c-0.3-0.3-0.7-0.5-1-0.8c-2.9,5.2-1.4,9.6,2.3,13.6c-0.3,0.2-0.4,0.3-0.5,0.4
		c-0.2,0.1-0.5,0.1-0.7,0.1c-4.7,0.4-9.3,1.1-13.8,2.4c-4.4,1.2-8.3,3.2-10.9,7.1c-0.3,0.4-0.7,0.8-1,1.2c-2.6,3.6-6.2,5.9-10.7,6.5
		c-1.1,0.1-2.1,0.4-3.2,0.6c-0.4,0.1-0.8,0.4-1.3,0.6c1.3,2.1,3.1,3.3,5.1,4.3c2,1,4,1.8,6.1,2.7c-0.8,1.3-1.7,2.5-2.6,3.8
		c-2.2,3.5-4.3,7.1-6.6,10.6c-2,3-4.6,5.3-8.2,6.1c-2.7,0.5-5.2,1.6-7.5,3c-3.9,2.2-6.3,5.4-7,9.9c-0.4,2.4,0,2.8,2.3,2.1
		c3.8-1.2,7.5-2.2,11.5-1c2.5,0.7,5.1,1.4,7.6,2.1c0.2,0.1,0.4,0.2,0.6,0.4c-0.2,0.2-0.3,0.3-0.5,0.4c-4.7,2.6-8.5,6.1-11.7,10.4
		c-5.6,7.4-7.8,15.9-8.5,24.9c-0.3,4.7,0.4,9.3-0.6,14c-1.2,5.8-5.1,10.3-10.5,11.5c-0.9,0.2-1.8,0.3-2.7,0.6
		c-0.3,0.1-0.6,0.4-0.7,0.6c-0.1,0.2,0.3,0.5,0.5,0.7c0.3,0.3,0.7,0.5,1,0.7c6.1,4,12.7,6.2,20.1,5.3c0.3,0,0.6,0.1,1.1,0.1
		c-0.4,0.5-0.6,0.9-0.9,1.2c-2,2.3-3.8,4.9-4.8,7.8c-0.9,2.8-1.6,5.6-2.5,8.4c-1.8,5.9-5.4,9.2-12.3,8.5c-1.1-0.1-2.3-0.4-3.4-0.6
		c-0.3,0-0.8,0-0.9,0.2c-0.2,0.2-0.1,0.7,0,1c0.2,0.4,0.6,0.8,0.9,1.1c1.8,1.7,3.6,3.5,5.4,5.1c7.9,7.2,17.3,11.7,27.4,14.4
		c7.4,1.9,14.9,2.7,22.7,1.9c10.4-1.2,20.3-4,29.5-9c8.4-4.5,16.7-9.1,25.1-13.5c6-3.1,12.4-3.4,18.8-1.8c4.8,1.2,8.8,3.9,12.8,6.6
		c0.8,0.5,1.5,1.1,2.3,1.6c1.2,0.7,1.9,0.4,2.1-0.9c0.2-1,0.4-2,0.2-3c-0.6-3.7-1-7.5-2.1-11c-1.8-5.8-5.4-10.6-9.2-15.4
		c-1.8-2.3-3.7-4.5-5.2-7c-2.8-4.6-4.3-9.7-5.4-14.9c-0.9-4.2-1.5-8.4-1.2-12.7c0.2-3.7,0.7-7.5,1.1-11.2c0.2-1.3,0.6-2.5,1-3.9
		c0.7,0.2,1.2,0.3,1.7,0.6c4.2,2,8.5,3.9,12.6,6.2c6.1,3.4,12.1,7.1,16.5,12.8c2.4,3.2,5.1,6.2,5.7,10.4c0.3,2,1.2,3.5,2.8,4.7
		c4.5,3.2,9.1,6.4,13.6,9.6c4.8,3.5,9.6,2.7,14.5,0.5c0.7-0.3,1.2-0.8,1.8-1.3c0.9-0.8,1.7-1.7,2.7-2.4c4.7-3.5,7.8-8.1,8.3-14
		c0.4-5.4,0.2-10.7-2.3-15.7c-1.2-2.4-2.2-4.9-4.5-6.5c-0.9-0.6-1.7-1.5-2.2-2.5c-6.7-12.5-12.3-25.6-16.5-39.1
		c-1.4-4.6-2.9-9.1-3.7-13.9c-0.5-3.1-2-6-4.1-8.5c-2.7-3.2-5.7-6.1-8.5-9.1c-0.4-0.4-0.8-0.7-1.2-1.1c0.3-0.3,0.4-0.4,0.5-0.6
		c6.3-6,12.7-12.1,19-18.2c5.9-5.7,11.8-11.4,17.7-17.1c10-9.8,20-19.5,30-29.3c3-2.9,5.9-5.9,8.8-8.9c0.7-0.7,1.3-1.5,0.7-2.5
		c-0.6-1-1.8-1.4-2.9-0.9c-1.6,0.7-3.1,1.5-4.5,2.4c-14.9,10.4-29.7,20.8-44.6,31.2c-6.8,4.8-13.6,9.6-20.5,14.5
		C203.5,56.9,197.8,60.9,192.1,65z M204,112.6c-1.3,0.9-2.6,1.8-3.9,2.6c-0.2,0.1-0.7-0.2-0.9-0.5c-1.2-1.5-2.3-3.1-3.5-4.4
		c-1.4-1.5-3-2.8-4.5-4.2c-0.3-0.2-0.4-0.6-0.5-1c0.5-0.1,1-0.5,1.3-0.3c3.5,1.7,7,3.5,10.5,5.3c0.6,0.3,1.2,0.7,1.7,1.1
		c0.2,0.1,0.2,0.4,0.4,0.6C204.3,112,204.2,112.4,204,112.6z"/>
	<path d="M247.3,53.2c-5.9,5.6-11.7,11.1-17.5,16.7c0.9,1.1,1.7,2,2.5,3c13.6,16.9,22.2,35.9,25,57.5c1.7,13.6,1.3,27.1-1.9,40.4
		c-5.8,24.1-18,44.5-36.8,60.7c-12.3,10.7-26.4,18.1-42,22.9c-9.6,3-19.5,4.3-29.5,4.5c-12.3,0.2-24.3-1.1-36.1-4.9
		c-0.3-0.1-0.8-0.1-1.1,0c-6.3,1.5-12.6,2.4-19.1,2.3c-1.4,0-2.8,0.1-4.2-0.1c-2.1-0.2-4.1-0.6-6.1-1c-2.9-0.6-5.9-1-8.8-1.8
		c-2.2-0.6-4.4-1.6-6.5-2.4c-5.1-1.8-9.9-4-14.3-7c-2.5-1.7-4.8-3.6-7.2-5.4c-1.3-1-2.5-2.1-3.7-3.1c30.9,36.8,84.3,56.8,135.1,44.2
		c50.5-10.5,92.1-52.4,104-103.6C290,128.9,273.9,81.6,247.3,53.2z"/>
	<path d="M44.5,215.9c4.7,1.1,4.9,0.2,6.2-3.3c0.1-0.3,0.2-0.6,0.2-0.9c0-0.7,0-1.4-0.3-2c-2.7-4.8-5.8-9.4-8.2-14.3
		c-10.8-21.4-13.7-44-10.4-67.5c1.6-11.5,5.3-22.4,10.4-32.8c8.2-16.8,19.9-30.6,34.9-41.6c16-11.6,33.8-18.9,53.6-21.2
		c12.6-1.4,25.1-1,37.5,1.6c11.9,2.5,23,7,33.5,13.1c0.6,0.3,1,0.4,1.6,0c1.2-0.9,2.5-1.8,3.8-2.6c3-2.1,5.9-4.3,8.9-6.4
		c2.6-1.8,5.2-3.6,7.9-5.4C176.1-2.4,98.5-4.5,46,49.3C-5.8,102.4-3.2,178.9,33.5,227.4c0-0.4,0-0.6,0-0.8c-0.6-2.4-0.2-4.5,1.1-6.6
		C36.4,216.8,40.2,214.9,44.5,215.9z"/>
</g>
</svg>
