<svg xmlns="http://www.w3.org/2000/svg" width="199.357" height="159.884" viewBox="0 0 199.357 159.884">
  <g id="Group_64840" data-name="Group 64840" transform="translate(-176.728 -191.236)">
    <g id="Group_64838" data-name="Group 64838" transform="translate(219.64 191.236)">
      <path id="Path_45214" data-name="Path 45214" d="M284.2,191.324l-17.063,16.984a2.79,2.79,0,0,0,1.968,4.768h32.961a21.436,21.436,0,0,1-21.436,21.434h-56.9l-14.639,14.638a2.791,2.791,0,0,0,1.974,4.764h75.11A35.625,35.625,0,0,0,321.8,218.287V191.236Z" transform="translate(-208.272 -191.236)" fill="#fbb03b"/>
      <path id="Path_45215" data-name="Path 45215" d="M250.346,191.565a10.864,10.864,0,0,0-10.415,3.247,2.678,2.678,0,0,1-3.912,0,10.874,10.874,0,1,0,.026,14.7,2.675,2.675,0,0,1,3.861,0,10.876,10.876,0,1,0,10.441-17.95Z" transform="translate(-205.07 -191.212)" fill="#fbb03b"/>
    </g>
    <path id="Path_45216" data-name="Path 45216" d="M205.419,283.441h-4.005V264.514h-7.569v4.553l-14.868,4.224a18.339,18.339,0,0,0-2.249,8.613,9.591,9.591,0,0,0,2.332,6.693q2.332,2.579,6.941,2.578,3.51,0,7.844-2.851v3.895h11.574l.548-.824v-7.131Zm-11.574-2.085a16.971,16.971,0,0,1-6.693,1.536q-3.567,0-3.567-2.578a12.317,12.317,0,0,1,.166-1.919l10.094-2.853Z" transform="translate(0 26.409)" fill="#666"/>
    <path id="Path_45217" data-name="Path 45217" d="M218.517,282.692v7.626l-.548.548h-.548a7.573,7.573,0,0,1-2.141-.275,5.66,5.66,0,0,1-1.919-1.069,19.457,19.457,0,0,1-1.509-1.317q-.522-.522-1.673-1.783l-2.743,4.444h-9.327l-1.1-1.1v-6.912l1.1-.767h7.572V268.265h7.679v12.672a7.153,7.153,0,0,0,4.278,1.152h.331Z" transform="translate(7.31 27.76)" fill="#666"/>
    <path id="Path_45218" data-name="Path 45218" d="M212.708,278.427H223.35a.969.969,0,0,1,1.1,1.1v6.583a.969.969,0,0,1-1.1,1.1H212.708a.97.97,0,0,1-1.1-1.1v-6.583A.97.97,0,0,1,212.708,278.427Z" transform="translate(12.571 31.423)" fill="#666"/>
    <path id="Path_45219" data-name="Path 45219" d="M220.529,278.427h10.642a.969.969,0,0,1,1.1,1.1v6.583a.969.969,0,0,1-1.1,1.1H220.529a.969.969,0,0,1-1.1-1.1v-6.583A.969.969,0,0,1,220.529,278.427Z" transform="translate(15.39 31.423)" fill="#666"/>
    <path id="Path_45220" data-name="Path 45220" d="M228.353,278.427H239a.97.97,0,0,1,1.1,1.1v6.583a.97.97,0,0,1-1.1,1.1H228.353a.969.969,0,0,1-1.1-1.1v-6.583A.969.969,0,0,1,228.353,278.427Z" transform="translate(18.21 31.423)" fill="#666"/>
    <path id="Path_45221" data-name="Path 45221" d="M236.174,278.427h10.644a.969.969,0,0,1,1.1,1.1v6.583a.969.969,0,0,1-1.1,1.1H236.174a.969.969,0,0,1-1.1-1.1v-6.583A.969.969,0,0,1,236.174,278.427Z" transform="translate(21.029 31.423)" fill="#666"/>
    <path id="Path_45222" data-name="Path 45222" d="M244,278.427H254.64a.969.969,0,0,1,1.1,1.1v6.583a.969.969,0,0,1-1.1,1.1H244a.97.97,0,0,1-1.1-1.1v-6.583A.97.97,0,0,1,244,278.427Z" transform="translate(23.848 31.423)" fill="#666"/>
    <path id="Path_45223" data-name="Path 45223" d="M299.293,283.215v7.626l-.548.548h-.55a6.118,6.118,0,0,1-3.537-.96,19.432,19.432,0,0,1-3.265-3.045l-2.578,4a26.867,26.867,0,0,1-13.33-3.951l-2.909,3.951a15.125,15.125,0,0,1-9.544-3.621l-.494,3.621H251.675l-.548-.548v-7.681l.548-.548h4.553l1.755-13.276H265.5l-1.592,11.684a15.641,15.641,0,0,0,6.476,1.536l1.589-13.22h7.407L278.007,281.4a33.147,33.147,0,0,0,8.5,1.208q-.988-7.681-2.2-14.154l7.572-1.646q1.369,7.35,2.25,14.647a7,7,0,0,0,4.278,1.152h.329Z" transform="translate(26.813 27.237)" fill="#666"/>
    <path id="Path_45224" data-name="Path 45224" d="M318.257,283.128v7.626l-.548.548h-.55a6.246,6.246,0,0,1-3.347-.85,15.586,15.586,0,0,1-3.016-2.606l-4.882,4.828-12.068-5.157a10.279,10.279,0,0,1-3.292,2.99,9.068,9.068,0,0,1-4.059.8h-.22l-.548-.714v-6.967l.548-1.1h.823a3.118,3.118,0,0,0,2.33-1.344,45.287,45.287,0,0,0,3.319-4.965,29.589,29.589,0,0,1,5.459-6.748,9.1,9.1,0,0,1,6.118-2.413,7.582,7.582,0,0,1,6.335,3.538,14.382,14.382,0,0,1,2.551,8.64,14,14,0,0,1-.165,2.084,6.863,6.863,0,0,0,4.334,1.208h.329Zm-15.581-7.406a3.054,3.054,0,0,0-2.275,1.207,24.911,24.911,0,0,0-2.771,4.389l8.01,3.457a12.194,12.194,0,0,0,.713-4.059,5.66,5.66,0,0,0-1.1-3.594A3.215,3.215,0,0,0,302.676,275.722Z" transform="translate(39.282 27.324)" fill="#666"/>
    <path id="Path_45225" data-name="Path 45225" d="M316.109,267.055h7.68V291.3H309.526l-1.1-1.1v-6.912l1.1-.767h6.583Z" transform="translate(47.464 27.324)" fill="#666"/>
    <g id="Group_64839" data-name="Group 64839" transform="translate(176.728 335.239)">
      <path id="Path_45226" data-name="Path 45226" d="M188.807,300.5h-4.258v12.057h-3.563V300.5h-4.258v-3.151h12.079Z" transform="translate(-176.728 -296.998)" fill="#666"/>
      <path id="Path_45227" data-name="Path 45227" d="M201.735,309.012h-5.04l-1.107,3.541h-3.432l5.018-15.208h4.365l5.106,15.208h-3.779Zm-.955-2.933-1.608-4.975-1.564,4.975Z" transform="translate(-171.168 -296.998)" fill="#666"/>
      <path id="Path_45228" data-name="Path 45228" d="M226.005,297.345v15.208h-3.563v-5.975a23.365,23.365,0,0,1,.2-3.258h-.2a13.687,13.687,0,0,1-1,2.955l-2,4.518h-2.715l-2.042-4.518a17.139,17.139,0,0,1-.956-2.955h-.2a23.365,23.365,0,0,1,.2,3.258v5.975h-3.26V297.345h3.521l4.474,10.081,4.172-10.081Z" transform="translate(-164.567 -296.998)" fill="#666"/>
      <path id="Path_45229" data-name="Path 45229" d="M236.128,303.368l.26.109a11.883,11.883,0,0,1,3.9,2.216,3.867,3.867,0,0,1,1.075,2.846,7.155,7.155,0,0,1-.8,3.171,6.46,6.46,0,0,1-2.249.924,12.75,12.75,0,0,1-2.944.337,15,15,0,0,1-5.213-.762V309.06l.174-.152a17.52,17.52,0,0,0,5.365.869,9.739,9.739,0,0,0,2.194-.218,3.181,3.181,0,0,0,.022-.434,1.327,1.327,0,0,0-.577-1.076,10.063,10.063,0,0,0-2.269-1.1l-.261-.109a9.656,9.656,0,0,1-3.737-2.26,4.726,4.726,0,0,1-1-3.172,5.634,5.634,0,0,1,.8-3.019,9.419,9.419,0,0,1,5.258-1.3,12.094,12.094,0,0,1,4.519.739v3.149l-.2.152a15.022,15.022,0,0,0-4.541-.848,8.3,8.3,0,0,0-2.325.3,2.715,2.715,0,0,0-.044.412,1.658,1.658,0,0,0,.5,1.272A7.371,7.371,0,0,0,236.128,303.368Z" transform="translate(-157.505 -297.09)" fill="#666"/>
      <path id="Path_45230" data-name="Path 45230" d="M259.328,297.345v15.208h-3.563v-6.039h-5.91v6.039h-3.564V297.345h3.564v6.018h5.91v-6.018Z" transform="translate(-151.658 -296.998)" fill="#666"/>
      <path id="Path_45231" data-name="Path 45231" d="M268.06,297.345v15.208H264.5V297.345Z" transform="translate(-145.097 -296.998)" fill="#666"/>
      <path id="Path_45232" data-name="Path 45232" d="M288.838,297.345,283.6,307.556v5h-3.564v-5.127l-5.257-10.081h3.781l3.453,6.886,3.39-6.886Z" transform="translate(-141.39 -296.998)" fill="#666"/>
      <path id="Path_45233" data-name="Path 45233" d="M301.4,309.012h-5.04l-1.107,3.541h-3.432l5.018-15.208H301.2l5.106,15.208h-3.779Zm-.955-2.933-1.608-4.975-1.564,4.975Z" transform="translate(-135.25 -296.998)" fill="#666"/>
      <path id="Path_45234" data-name="Path 45234" d="M323.174,297.345v15.208h-3.564v-6.039H313.7v6.039h-3.564V297.345H313.7v6.018h5.908v-6.018Z" transform="translate(-128.649 -296.998)" fill="#666"/>
    </g>
    <path id="Path_45235" data-name="Path 45235" d="M324.46,256.247a5,5,0,0,0-4.79,1.494,1.231,1.231,0,0,1-1.8,0,5,5,0,1,0,.012,6.763,1.23,1.23,0,0,1,1.775,0,5,5,0,1,0,4.8-8.256Z" transform="translate(47.74 23.386)" fill="#fbb03b"/>
    <path id="Path_45236" data-name="Path 45236" d="M287.172,260.089a5,5,0,0,0-8.57-2.348,1.231,1.231,0,0,1-1.8,0c-.011-.012-.027-.02-.038-.033a5.091,5.091,0,0,0-.864-.729c-.041-.029-.082-.056-.124-.083a4.81,4.81,0,0,0-1.043-.5c-.038-.014-.076-.023-.116-.034-.126-.039-.252-.087-.382-.116s-.269-.015-.405-.033a4.284,4.284,0,0,0-1.411,0c-.137.018-.268,0-.407.033s-.256.076-.382.116c-.039.011-.078.02-.116.034a4.751,4.751,0,0,0-1.043.5c-.042.026-.083.053-.124.082a4.976,4.976,0,0,0-.864.729c-.011.012-.027.02-.038.033a1.232,1.232,0,0,1-1.8,0,5,5,0,1,0,.012,6.763,1.23,1.23,0,0,1,1.775,0c.124.135.272.245.408.366.09.078.17.163.264.235a5,5,0,0,0,.641.4c.087.048.167.107.257.15a4.983,4.983,0,0,0,.822.288c.067.018.126.049.193.064a4.98,4.98,0,0,0,1.1.125h.011a4.981,4.981,0,0,0,1.1-.125c.067-.015.126-.046.193-.064a4.989,4.989,0,0,0,.822-.288c.091-.042.17-.1.258-.151a4.964,4.964,0,0,0,.639-.4c.094-.072.174-.158.264-.235a5.228,5.228,0,0,0,.408-.366,1.23,1.23,0,0,1,1.775,0,5,5,0,0,0,8.583-4.414Z" transform="translate(29.639 23.386)" fill="#fbb03b"/>
    <path id="Path_45237" data-name="Path 45237" d="M193.081,256.247a5,5,0,0,0-4.791,1.494,1.231,1.231,0,0,1-1.8,0,5,5,0,1,0,.012,6.763,1.23,1.23,0,0,1,1.775,0,5,5,0,1,0,4.8-8.256Z" transform="translate(0.392 23.386)" fill="#fbb03b"/>
    <path id="Path_45238" data-name="Path 45238" d="M213.284,288.037a5,5,0,0,0-4.791,1.494,1.232,1.232,0,0,1-1.8,0,5,5,0,1,0,.012,6.763,1.232,1.232,0,0,1,1.777,0,5,5,0,1,0,4.8-8.256Z" transform="translate(7.673 34.843)" fill="#fbb03b"/>
  </g>
</svg>
